<svg xmlns="http://www.w3.org/2000/svg" width="24" height="22" viewBox="0 0 24 22" aria-labelledby="title desc">
  <title id="heartSavedTitle">
    Saved Heart Icon
  </title>
  <desc id="heartSavedDescription">
    An icon for unsaving the things you care about
  </desc>
  <path id="heartSavedFill" fill-rule="nonzero" fill="#f44336" opacity="1"
    d="M20.5 10.8L12 19l-8.4-8a5 5 0 0 1 0-7.4 5.2 5.2 0 0 1 7.4 0l1 1 1-1a5.4 5.4 0 0 1 7.5 0 5 5 0 0 1 0 7.2z"/>
  <path id="heartSavedOutline" fill-rule="nonzero" fill="#ffffff" opacity="1"
    d="M7.3 2A5.3 5.3 0 0 1 11 3.5l1 1 1-1a5.4 5.4 0 0 1 7.5 0 5 5 0 0 1 0 7.3l-8.3 8a.3.3 0 0 1-.4 0l-8.2-8a5 5 0 0 1 0-7.3A5.3 5.3 0 0 1 7.3 2m0-2a7.3 7.3 0 0 0-5 2 7 7 0 0 0 0 10.3l8 8a2.3 2.3 0 0 0 3.3 0l8.3-8a6.7 6.7 0 0 0 2-5A7.6 7.6 0 0 0 22 2a7.4 7.4 0 0 0-10-.3A7.2 7.2 0 0 0 7.3 0z"/>
</svg>
